<svg width="228" height="76" viewBox="0 0 228 76" fill="none" xmlns="http://www.w3.org/2000/svg">
<g filter="url(#filter0_dd_15_413)">
<rect x="2" y="2" width="224" height="72" rx="6" fill="white"/>
<rect x="18" y="18" width="40" height="40" rx="6" stroke="black"/>
<path d="M21.835 34.15C21.835 26.9206 27.6956 21.06 34.925 21.06V41.85C34.925 49.0794 29.0644 54.94 21.835 54.94V34.15Z" fill="black"/>
<path d="M38 44.545C38 40.9303 43.8606 38 51.09 38V48.395C51.09 52.0097 45.2294 54.94 38 54.94V44.545Z" fill="black"/>
<circle cx="43.5" cy="28.5" r="7.45" fill="black" stroke="black" stroke-width="0.1"/>
<path d="M85.1378 45V31.9091L93.8054 31.9091V34.1911H87.9055V37.3104H93.2301V39.5923H87.9055V45H85.1378ZM99.3313 45.1918C98.3384 45.1918 97.4798 44.9808 96.7553 44.5589C96.0352 44.1328 95.479 43.5405 95.087 42.782C94.695 42.0192 94.4989 41.1349 94.4989 40.1293C94.4989 39.1151 94.695 38.2287 95.087 37.4702C95.479 36.7074 96.0352 36.1151 96.7553 35.6932C97.4798 35.267 98.3384 35.054 99.3313 35.054C100.324 35.054 101.181 35.267 101.901 35.6932C102.625 36.1151 103.184 36.7074 103.576 37.4702C103.968 38.2287 104.164 39.1151 104.164 40.1293C104.164 41.1349 103.968 42.0192 103.576 42.782C103.184 43.5405 102.625 44.1328 101.901 44.5589C101.181 44.9808 100.324 45.1918 99.3313 45.1918ZM99.3441 43.0824C99.7958 43.0824 100.173 42.9545 100.475 42.6989C100.778 42.4389 101.006 42.0852 101.159 41.6378C101.317 41.1903 101.396 40.6811 101.396 40.1101C101.396 39.5391 101.317 39.0298 101.159 38.5824C101.006 38.1349 100.778 37.7812 100.475 37.5213C100.173 37.2614 99.7958 37.1314 99.3441 37.1314C98.8881 37.1314 98.5046 37.2614 98.1935 37.5213C97.8867 37.7812 97.6545 38.1349 97.4968 38.5824C97.3434 39.0298 97.2667 39.5391 97.2667 40.1101C97.2667 40.6811 97.3434 41.1903 97.4968 41.6378C97.6545 42.0852 97.8867 42.4389 98.1935 42.6989C98.5046 42.9545 98.8881 43.0824 99.3441 43.0824ZM110.37 45.1918C109.377 45.1918 108.519 44.9808 107.794 44.5589C107.074 44.1328 106.518 43.5405 106.126 42.782C105.734 42.0192 105.538 41.1349 105.538 40.1293C105.538 39.1151 105.734 38.2287 106.126 37.4702C106.518 36.7074 107.074 36.1151 107.794 35.6932C108.519 35.267 109.377 35.054 110.37 35.054C111.363 35.054 112.22 35.267 112.94 35.6932C113.664 36.1151 114.223 36.7074 114.615 37.4702C115.007 38.2287 115.203 39.1151 115.203 40.1293C115.203 41.1349 115.007 42.0192 114.615 42.782C114.223 43.5405 113.664 44.1328 112.94 44.5589C112.22 44.9808 111.363 45.1918 110.37 45.1918ZM110.383 43.0824C110.835 43.0824 111.212 42.9545 111.515 42.6989C111.817 42.4389 112.045 42.0852 112.199 41.6378C112.356 41.1903 112.435 40.6811 112.435 40.1101C112.435 39.5391 112.356 39.0298 112.199 38.5824C112.045 38.1349 111.817 37.7812 111.515 37.5213C111.212 37.2614 110.835 37.1314 110.383 37.1314C109.927 37.1314 109.544 37.2614 109.233 37.5213C108.926 37.7812 108.694 38.1349 108.536 38.5824C108.382 39.0298 108.306 39.5391 108.306 40.1101C108.306 40.6811 108.382 41.1903 108.536 41.6378C108.694 42.0852 108.926 42.4389 109.233 42.6989C109.544 42.9545 109.927 43.0824 110.383 43.0824ZM122.196 35.1818V37.2273H116.283V35.1818H122.196ZM117.625 32.8295H120.348V41.983C120.348 42.2344 120.387 42.4304 120.463 42.571C120.54 42.7074 120.647 42.8033 120.783 42.8587C120.924 42.9141 121.086 42.9418 121.269 42.9418C121.397 42.9418 121.525 42.9311 121.652 42.9098C121.78 42.8842 121.878 42.8651 121.946 42.8523L122.375 44.8786C122.238 44.9212 122.047 44.9702 121.799 45.0256C121.552 45.0852 121.252 45.1214 120.898 45.1342C120.242 45.1598 119.667 45.0724 119.172 44.8722C118.682 44.6719 118.301 44.3608 118.028 43.9389C117.755 43.517 117.621 42.9844 117.625 42.3409V32.8295ZM124.232 45V31.9091H126.955V36.831H127.038C127.157 36.5668 127.33 36.2983 127.555 36.0256C127.786 35.7486 128.084 35.5185 128.45 35.3352C128.821 35.1477 129.281 35.054 129.831 35.054C130.547 35.054 131.207 35.2415 131.812 35.6165C132.418 35.9872 132.901 36.5476 133.263 37.2976C133.626 38.0433 133.807 38.9787 133.807 40.1037C133.807 41.1989 133.63 42.1236 133.276 42.8778C132.927 43.6278 132.45 44.1967 131.844 44.5845C131.244 44.968 130.57 45.1598 129.825 45.1598C129.296 45.1598 128.847 45.0724 128.476 44.8977C128.109 44.723 127.809 44.5036 127.575 44.2393C127.34 43.9709 127.161 43.7003 127.038 43.4276H126.916V45H124.232ZM126.897 40.0909C126.897 40.6747 126.978 41.1839 127.14 41.6186C127.302 42.0533 127.536 42.392 127.843 42.6349C128.15 42.8736 128.523 42.9929 128.962 42.9929C129.405 42.9929 129.78 42.8714 130.087 42.6286C130.393 42.3814 130.626 42.0405 130.783 41.6058C130.945 41.1669 131.026 40.6619 131.026 40.0909C131.026 39.5241 130.947 39.0256 130.79 38.5952C130.632 38.1648 130.4 37.8281 130.093 37.5852C129.786 37.3423 129.409 37.2209 128.962 37.2209C128.518 37.2209 128.143 37.3381 127.837 37.5724C127.534 37.8068 127.302 38.1392 127.14 38.5696C126.978 39 126.897 39.5071 126.897 40.0909ZM138.423 45.1854C137.797 45.1854 137.239 45.0767 136.749 44.8594C136.259 44.6378 135.871 44.3118 135.585 43.8814C135.304 43.4467 135.164 42.9055 135.164 42.2578C135.164 41.7124 135.264 41.2543 135.464 40.8835C135.664 40.5128 135.937 40.2145 136.282 39.9886C136.627 39.7628 137.019 39.5923 137.458 39.4773C137.901 39.3622 138.366 39.2813 138.852 39.2344C139.423 39.1747 139.883 39.1193 140.232 39.0682C140.582 39.0128 140.835 38.9318 140.993 38.8253C141.151 38.7187 141.23 38.5611 141.23 38.3523V38.3139C141.23 37.9091 141.102 37.5959 140.846 37.3743C140.595 37.1527 140.237 37.0419 139.772 37.0419C139.282 37.0419 138.892 37.1506 138.602 37.3679C138.313 37.581 138.121 37.8494 138.027 38.1733L135.509 37.9688C135.637 37.3722 135.888 36.8565 136.263 36.4219C136.638 35.983 137.122 35.6463 137.714 35.4119C138.311 35.1733 139.001 35.054 139.785 35.054C140.33 35.054 140.852 35.1179 141.351 35.2457C141.854 35.3736 142.299 35.5717 142.687 35.8402C143.079 36.1087 143.388 36.4538 143.614 36.8757C143.84 37.2933 143.953 37.794 143.953 38.3778V45H141.37V43.6385H141.294C141.136 43.9453 140.925 44.2159 140.661 44.4503C140.396 44.6804 140.079 44.8615 139.708 44.9936C139.338 45.1214 138.909 45.1854 138.423 45.1854ZM139.203 43.3061C139.604 43.3061 139.958 43.2273 140.264 43.0696C140.571 42.9077 140.812 42.6903 140.987 42.4176C141.161 42.1449 141.249 41.8359 141.249 41.4908V40.4489C141.164 40.5043 141.046 40.5554 140.897 40.6023C140.752 40.6449 140.588 40.6854 140.405 40.7237C140.222 40.7578 140.039 40.7898 139.855 40.8196C139.672 40.8452 139.506 40.8686 139.357 40.8899C139.037 40.9368 138.758 41.0114 138.519 41.1136C138.281 41.2159 138.095 41.3544 137.963 41.5291C137.831 41.6996 137.765 41.9126 137.765 42.1683C137.765 42.5391 137.899 42.8224 138.168 43.0185C138.441 43.2102 138.786 43.3061 139.203 43.3061ZM148.788 31.9091V45H146.065V31.9091H148.788ZM153.692 31.9091V45H150.969V31.9091L153.692 31.9091ZM167.192 35.674C167.141 35.1584 166.922 34.7578 166.534 34.4723C166.146 34.1868 165.62 34.044 164.955 34.044C164.504 34.044 164.122 34.108 163.811 34.2358C163.5 34.3594 163.261 34.532 163.095 34.7536C162.933 34.9751 162.852 35.2266 162.852 35.5078C162.844 35.7422 162.893 35.9467 162.999 36.1214C163.11 36.2962 163.261 36.4474 163.453 36.5753C163.645 36.6989 163.866 36.8075 164.118 36.9013C164.369 36.9908 164.638 37.0675 164.923 37.1314L166.099 37.4126C166.67 37.5405 167.195 37.7109 167.672 37.924C168.149 38.1371 168.563 38.3991 168.912 38.7102C169.261 39.0213 169.532 39.3878 169.724 39.8097C169.92 40.2315 170.02 40.7152 170.024 41.2607C170.02 42.0618 169.815 42.7564 169.411 43.3445C169.01 43.9283 168.43 44.3821 167.672 44.706C166.918 45.0256 166.008 45.1854 164.942 45.1854C163.886 45.1854 162.965 45.0234 162.181 44.6996C161.401 44.3757 160.792 43.8963 160.353 43.2614C159.918 42.6222 159.69 41.8317 159.669 40.8899H162.347C162.377 41.3288 162.503 41.6953 162.724 41.9893C162.95 42.2791 163.251 42.4986 163.626 42.6477C164.005 42.7926 164.433 42.8651 164.911 42.8651C165.379 42.8651 165.786 42.7969 166.131 42.6605C166.481 42.5241 166.751 42.3345 166.943 42.0916C167.135 41.8487 167.231 41.5696 167.231 41.2543C167.231 40.9602 167.143 40.7131 166.969 40.5128C166.798 40.3125 166.547 40.142 166.214 40.0014C165.886 39.8608 165.484 39.733 165.006 39.6179L163.581 39.2599C162.477 38.9915 161.606 38.5717 160.967 38.0007C160.327 37.4297 160.01 36.6605 160.014 35.6932C160.01 34.9006 160.221 34.2081 160.647 33.6158C161.077 33.0234 161.668 32.5611 162.418 32.2287C163.168 31.8963 164.02 31.7301 164.974 31.7301C165.946 31.7301 166.794 31.8963 167.518 32.2287C168.247 32.5611 168.814 33.0234 169.219 33.6158C169.624 34.2081 169.832 34.8942 169.845 35.674H167.192ZM177.057 35.1818V37.2273H171.144V35.1818H177.057ZM172.487 32.8295H175.21V41.983C175.21 42.2344 175.248 42.4304 175.325 42.571C175.401 42.7074 175.508 42.8033 175.644 42.8587C175.785 42.9141 175.947 42.9418 176.13 42.9418C176.258 42.9418 176.386 42.9311 176.514 42.9098C176.642 42.8842 176.74 42.8651 176.808 42.8523L177.236 44.8786C177.1 44.9212 176.908 44.9702 176.661 45.0256C176.414 45.0852 176.113 45.1214 175.759 45.1342C175.103 45.1598 174.528 45.0724 174.034 44.8722C173.544 44.6719 173.162 44.3608 172.889 43.9389C172.617 43.517 172.482 42.9844 172.487 42.3409V32.8295ZM181.631 45.1854C181.004 45.1854 180.446 45.0767 179.956 44.8594C179.466 44.6378 179.078 44.3118 178.792 43.8814C178.511 43.4467 178.371 42.9055 178.371 42.2578C178.371 41.7124 178.471 41.2543 178.671 40.8835C178.871 40.5128 179.144 40.2145 179.489 39.9886C179.834 39.7628 180.226 39.5923 180.665 39.4773C181.108 39.3622 181.573 39.2813 182.059 39.2344C182.63 39.1747 183.09 39.1193 183.439 39.0682C183.789 39.0128 184.042 38.9318 184.2 38.8253C184.358 38.7187 184.437 38.5611 184.437 38.3523V38.3139C184.437 37.9091 184.309 37.5959 184.053 37.3743C183.802 37.1527 183.444 37.0419 182.979 37.0419C182.489 37.0419 182.099 37.1506 181.809 37.3679C181.52 37.581 181.328 37.8494 181.234 38.1733L178.716 37.9688C178.844 37.3722 179.095 36.8565 179.47 36.4219C179.845 35.983 180.329 35.6463 180.921 35.4119C181.518 35.1733 182.208 35.054 182.992 35.054C183.537 35.054 184.059 35.1179 184.558 35.2457C185.061 35.3736 185.506 35.5717 185.894 35.8402C186.286 36.1087 186.595 36.4538 186.821 36.8757C187.047 37.2933 187.16 37.794 187.16 38.3778V45H184.577V43.6385H184.501C184.343 43.9453 184.132 44.2159 183.868 44.4503C183.604 44.6804 183.286 44.8615 182.915 44.9936C182.545 45.1214 182.116 45.1854 181.631 45.1854ZM182.41 43.3061C182.811 43.3061 183.165 43.2273 183.471 43.0696C183.778 42.9077 184.019 42.6903 184.194 42.4176C184.368 42.1449 184.456 41.8359 184.456 41.4908V40.4489C184.371 40.5043 184.253 40.5554 184.104 40.6023C183.959 40.6449 183.795 40.6854 183.612 40.7237C183.429 40.7578 183.246 40.7898 183.062 40.8196C182.879 40.8452 182.713 40.8686 182.564 40.8899C182.244 40.9368 181.965 41.0114 181.726 41.1136C181.488 41.2159 181.302 41.3544 181.17 41.5291C181.038 41.6996 180.972 41.9126 180.972 42.1683C180.972 42.5391 181.106 42.8224 181.375 43.0185C181.648 43.2102 181.993 43.3061 182.41 43.3061ZM194.494 35.1818V37.2273H188.582V35.1818H194.494ZM189.924 32.8295H192.647V41.983C192.647 42.2344 192.686 42.4304 192.762 42.571C192.839 42.7074 192.945 42.8033 193.082 42.8587C193.222 42.9141 193.384 42.9418 193.568 42.9418C193.695 42.9418 193.823 42.9311 193.951 42.9098C194.079 42.8842 194.177 42.8651 194.245 42.8523L194.673 44.8786C194.537 44.9212 194.345 44.9702 194.098 45.0256C193.851 45.0852 193.551 45.1214 193.197 45.1342C192.541 45.1598 191.965 45.0724 191.471 44.8722C190.981 44.6719 190.6 44.3608 190.327 43.9389C190.054 43.517 189.92 42.9844 189.924 42.3409V32.8295ZM204.314 37.9815L201.821 38.1349C201.779 37.9219 201.687 37.7301 201.547 37.5597C201.406 37.3849 201.221 37.2464 200.99 37.1442C200.765 37.0376 200.494 36.9844 200.179 36.9844C199.757 36.9844 199.401 37.0739 199.111 37.2528C198.821 37.4276 198.676 37.6619 198.676 37.956C198.676 38.1903 198.77 38.3885 198.958 38.5504C199.145 38.7124 199.467 38.8423 199.923 38.9403L201.7 39.2983C202.654 39.4943 203.366 39.8097 203.835 40.2443C204.304 40.679 204.538 41.25 204.538 41.9574C204.538 42.6009 204.348 43.1655 203.969 43.6513C203.594 44.1371 203.078 44.5163 202.422 44.7891C201.77 45.0575 201.018 45.1918 200.166 45.1918C198.866 45.1918 197.831 44.9212 197.059 44.38C196.292 43.8345 195.843 43.093 195.711 42.1555L198.389 42.0149C198.47 42.4112 198.666 42.7138 198.977 42.9226C199.288 43.1271 199.686 43.2294 200.172 43.2294C200.65 43.2294 201.033 43.1378 201.323 42.9545C201.617 42.767 201.766 42.5263 201.77 42.2322C201.766 41.9851 201.662 41.7827 201.457 41.625C201.252 41.4631 200.937 41.3395 200.511 41.2543L198.811 40.9155C197.852 40.7237 197.138 40.3913 196.669 39.9183C196.205 39.4453 195.973 38.8423 195.973 38.1094C195.973 37.4787 196.143 36.9354 196.484 36.4794C196.829 36.0234 197.313 35.6719 197.935 35.4247C198.561 35.1776 199.294 35.054 200.134 35.054C201.374 35.054 202.35 35.3161 203.061 35.8402C203.777 36.3643 204.195 37.0781 204.314 37.9815Z" fill="#171A1F"/>
</g>
<defs>
<filter id="filter0_dd_15_413" x="0" y="0" width="228" height="76" filterUnits="userSpaceOnUse" color-interpolation-filters="sRGB">
<feFlood flood-opacity="0" result="BackgroundImageFix"/>
<feColorMatrix in="SourceAlpha" type="matrix" values="0 0 0 0 0 0 0 0 0 0 0 0 0 0 0 0 0 0 127 0" result="hardAlpha"/>
<feOffset/>
<feGaussianBlur stdDeviation="0.5"/>
<feColorMatrix type="matrix" values="0 0 0 0 0.0901961 0 0 0 0 0.101961 0 0 0 0 0.121569 0 0 0 0.07 0"/>
<feBlend mode="normal" in2="BackgroundImageFix" result="effect1_dropShadow_15_413"/>
<feColorMatrix in="SourceAlpha" type="matrix" values="0 0 0 0 0 0 0 0 0 0 0 0 0 0 0 0 0 0 127 0" result="hardAlpha"/>
<feOffset/>
<feGaussianBlur stdDeviation="1"/>
<feColorMatrix type="matrix" values="0 0 0 0 0.0901961 0 0 0 0 0.101961 0 0 0 0 0.121569 0 0 0 0.12 0"/>
<feBlend mode="normal" in2="effect1_dropShadow_15_413" result="effect2_dropShadow_15_413"/>
<feBlend mode="normal" in="SourceGraphic" in2="effect2_dropShadow_15_413" result="shape"/>
</filter>
</defs>
</svg>
